<svg version="1.1" id="Layer_1" xmlns="http://www.w3.org/2000/svg" xmlns:xlink="http://www.w3.org/1999/xlink" x="0px" y="0px"
	 width="100%" viewBox="0 0 612 408" enable-background="new 0 0 612 408" xml:space="preserve">
<path fill="#000000" opacity="1.000000" stroke="none" 
	d="
M395.000000,409.000000 
	C263.365448,409.000000 132.230911,409.000000 1.048187,409.000000 
	C1.048187,273.065460 1.048187,137.130875 1.048187,1.098150 
	C204.884567,1.098150 408.769196,1.098150 612.826904,1.098150 
	C612.826904,136.999817 612.826904,272.999878 612.826904,409.000000 
	C540.464172,409.000000 467.982086,409.000000 395.000000,409.000000 
M369.127258,249.275360 
	C368.740204,248.817780 368.353149,248.360199 367.391388,247.519211 
	C363.256836,240.679413 359.122314,233.839615 355.097870,226.191422 
	C355.980438,222.157959 356.575012,218.176590 353.013641,215.002670 
	C353.013641,215.002670 353.087158,214.968979 353.102966,214.328110 
	C352.759796,213.867554 352.416626,213.407013 352.050964,212.920319 
	C352.050964,212.920319 352.085938,212.915512 352.065308,212.155472 
	C350.951080,208.770859 349.836853,205.386261 348.817688,201.198944 
	C348.595062,198.986237 348.372406,196.773544 348.078674,193.854477 
	C352.839844,194.566849 356.924744,195.178055 361.739807,195.914261 
	C363.871094,195.680115 366.002380,195.445984 368.784637,195.007690 
	C370.239288,194.469696 371.693970,193.931702 373.853333,193.135864 
	C380.259766,189.475128 386.666229,185.814392 393.649200,181.729904 
	C395.501099,180.421814 397.352966,179.113724 398.758789,178.120712 
	C395.599823,172.533142 392.328888,174.015274 388.408356,175.151108 
	C384.622070,177.159042 380.835815,179.166977 376.505615,181.291489 
	C376.004150,181.529205 375.502686,181.766907 374.372650,181.965683 
	C373.868896,182.293518 373.365143,182.621353 372.418976,182.990662 
	C372.418976,182.990662 371.980133,183.060669 371.352539,183.004700 
	C370.844086,183.314621 370.335632,183.624542 369.084930,184.203110 
	C368.312775,184.468567 367.503998,185.038483 366.774261,184.950821 
	C361.424622,184.307983 356.066772,183.672577 350.759674,182.756012 
	C346.588379,182.035629 342.485931,180.916779 338.029358,179.195099 
	C337.997589,175.136276 337.965851,171.077469 338.106262,166.250519 
	C337.569031,162.301514 334.781006,162.072205 331.582642,162.005356 
	C328.535889,161.941681 326.758606,163.084595 325.434326,166.357544 
	C322.881409,169.842316 322.874786,172.835114 327.013824,175.824875 
	C326.644012,177.874557 326.274170,179.924240 325.331818,181.927444 
	C324.874207,182.221512 324.416565,182.515579 323.533844,183.086197 
	C323.386017,183.376785 323.238220,183.667374 322.802246,184.552658 
	C322.529053,185.364853 322.255859,186.177048 321.998840,187.000610 
	C321.998840,187.000610 321.989105,186.985260 321.326385,187.240768 
	C318.248657,191.832230 315.170929,196.423691 312.034332,201.475647 
	C312.034332,201.475647 311.970093,201.935425 311.225067,201.924957 
	C310.759277,202.285568 310.209686,202.576065 309.840271,203.017365 
	C304.836212,208.995544 299.857178,214.994690 294.888611,220.157028 
	C295.535889,216.807663 296.183167,213.458298 296.982941,209.312256 
	C297.261932,207.483536 297.540924,205.654831 297.789917,203.074860 
	C296.681396,201.373444 295.572845,199.672012 294.464325,197.970596 
	C292.911285,199.297607 291.358276,200.624634 289.287476,202.136139 
	C289.559845,202.392517 289.832214,202.648895 290.088959,202.936996 
	C290.088959,202.936996 290.087616,202.900818 289.747284,203.576157 
	C289.492249,205.013931 289.237213,206.451721 288.284821,208.252075 
	C287.253052,213.162140 286.221283,218.072189 285.040985,223.738693 
	C285.078735,226.149307 285.116486,228.559921 284.905945,231.582367 
	C284.576721,232.353409 284.247498,233.124451 283.318451,234.300064 
	C282.392883,236.135376 281.077057,237.876541 280.607666,239.821930 
	C278.283936,249.452652 276.183838,259.137299 273.927002,269.148468 
	C276.607422,270.170166 278.830231,271.017456 281.774445,271.678650 
	C285.661804,260.076447 289.062775,248.377762 288.964386,235.339035 
	C288.999786,234.918671 289.035187,234.498306 289.577789,233.838821 
	C290.044647,233.578033 290.511536,233.317245 291.002838,233.004486 
	C291.002838,233.004486 290.946625,233.016296 291.242554,233.655884 
	C292.488525,233.446594 293.734467,233.237305 295.606140,232.779755 
	C304.314362,225.177856 313.022583,217.575958 322.274963,209.499039 
	C322.274963,213.629257 322.274963,217.323959 322.199005,221.675430 
	C322.257324,222.109741 322.315643,222.544067 322.022583,223.537003 
	C322.896057,225.805664 323.713226,228.098328 324.665161,230.333572 
	C325.195435,231.578735 326.571838,232.765457 326.503204,233.914993 
	C326.042633,241.629120 325.153778,249.236893 320.855804,256.057159 
	C319.154572,258.756744 318.235962,261.949524 316.221222,264.916565 
	C313.553314,267.748230 310.678741,270.417664 308.285858,273.465240 
	C306.515594,275.719849 305.372437,278.466858 303.340088,281.308105 
	C299.444611,284.757904 305.109131,285.989929 304.236633,288.938324 
	C302.495270,289.021637 300.753937,289.104950 298.090698,289.041412 
	C294.759674,289.032654 291.428497,288.998657 288.097687,289.021606 
	C284.044495,289.049500 281.569122,290.418457 281.936249,295.183502 
	C282.277313,299.610291 282.009033,304.084015 282.009033,308.965790 
	C276.527069,308.965790 271.545898,308.948364 266.564850,308.969147 
	C253.013901,309.025665 253.145004,309.029205 252.852798,295.703217 
	C252.803024,293.433105 251.087677,291.199493 249.675735,288.199036 
	C235.324188,288.134949 220.972443,288.026123 206.621475,288.091400 
	C205.468857,288.096649 204.321671,289.300171 203.010101,290.876923 
	C202.956711,296.566833 202.903320,302.256744 202.095596,308.034454 
	C201.516373,308.311707 200.939865,308.824036 200.357513,308.830780 
	C192.244263,308.924286 184.129593,308.998810 176.017334,308.903534 
	C175.293716,308.895081 174.584305,307.674225 173.732605,306.249420 
	C173.737091,305.070038 173.530701,303.843750 173.781097,302.719086 
	C175.164124,296.507050 173.836594,291.347412 169.686920,288.204071 
	C155.394165,288.131104 141.101425,288.044342 126.808601,288.027374 
	C126.118080,288.026550 125.426826,288.640045 124.104797,289.314178 
	C123.917351,294.515839 123.669777,299.716187 123.556381,304.919464 
	C123.381241,312.955719 123.297874,320.993988 122.816650,329.784393 
	C120.631233,330.195282 118.458183,330.695190 116.258141,331.000793 
	C108.861847,332.028168 101.442566,332.901306 94.067955,334.061493 
	C92.946159,334.237976 92.014389,335.622467 90.994713,336.448181 
	C91.946899,337.418396 92.752281,338.657379 93.893837,339.280884 
	C94.967926,339.867554 96.388687,339.919495 97.670662,340.008270 
	C103.082535,340.383057 108.515991,340.515839 113.911324,341.045288 
	C126.273293,342.258423 138.589584,344.151550 150.976120,344.845398 
	C166.364273,345.707275 181.804550,345.639374 197.222366,345.970520 
	C212.626709,346.301331 228.032227,346.949585 243.435303,346.897095 
	C287.345428,346.747467 331.255127,346.369995 375.163849,345.962067 
	C394.249084,345.784821 413.330750,345.248932 432.415680,345.001404 
	C443.409576,344.858826 454.434113,345.456055 465.395813,344.843231 
	C480.411896,344.003815 495.411041,342.588013 510.353210,340.862762 
	C514.963318,340.330505 520.451477,341.480225 524.714600,336.604736 
	C522.658020,335.563202 521.185974,334.292114 519.579834,334.090759 
	C510.071960,332.898895 500.532959,331.955200 491.015961,330.452667 
	C491.015961,330.452667 490.898071,329.991882 491.029785,329.063507 
	C491.031799,317.650574 491.065582,306.237427 490.993134,294.824982 
	C490.984680,293.491425 490.389862,292.161621 489.683136,290.259186 
	C487.775604,289.843750 485.879883,289.152344 483.958069,289.069794 
	C479.832794,288.892609 475.688568,289.144897 471.565063,288.948761 
	C470.645172,288.905029 469.778717,287.737457 468.957550,286.139587 
	C468.556396,278.357483 468.155273,270.575409 467.877960,261.891785 
	C467.882263,249.656036 467.886566,237.420273 468.050110,224.263062 
	C467.570190,220.882202 467.090271,217.501343 466.791168,213.368820 
	C466.878448,213.126358 466.965729,212.883896 467.730164,212.566986 
	C471.331787,208.187195 483.673920,205.951752 490.218811,208.855011 
	C497.248138,211.973160 504.606323,212.529236 512.013733,211.812622 
	C514.395203,211.582245 516.578796,209.307159 518.734558,207.298904 
	C516.694458,204.881287 514.863281,202.241714 512.575256,200.087341 
	C505.453888,193.381805 498.997742,185.334015 488.740051,183.527237 
	C482.999207,182.516052 476.951752,183.245529 470.230255,183.043884 
	C468.563324,183.669296 466.896362,184.294708 465.091309,185.860825 
	C465.104553,219.200882 465.117798,252.540955 465.005859,286.624329 
	C465.018372,287.374268 465.030914,288.124176 464.236450,289.006592 
	C459.214386,288.806458 454.057892,287.789154 449.200287,288.588501 
	C440.912659,289.952240 440.987427,290.431183 441.001801,299.101196 
	C441.006195,301.748505 441.039398,304.395752 440.856934,307.872681 
	C439.903748,308.239929 438.951996,308.920898 437.997070,308.925385 
	C429.352325,308.966095 420.707001,308.888489 411.667267,308.108246 
	C411.329437,302.262329 410.991608,296.416412 410.573090,289.173889 
	C405.335236,289.124573 399.865387,289.168396 394.402802,288.989288 
	C390.554382,288.863098 386.715881,288.433929 383.196198,287.501038 
	C385.846588,285.733368 388.497009,283.965729 391.042633,282.267975 
	C389.867188,278.532104 387.544403,278.990875 384.427277,279.635986 
	C383.458740,278.118439 382.354248,276.669434 381.547668,275.070160 
	C379.332489,270.678101 377.242340,266.222961 375.053558,261.088806 
	C373.439545,258.049347 371.825531,255.009872 370.066559,251.368134 
	C369.732513,250.893036 369.398468,250.417923 369.016907,250.009766 
	C369.016907,250.009766 369.085266,249.963943 369.127258,249.275360 
M186.551834,156.958405 
	C183.822144,162.191864 179.065887,159.918045 175.004044,159.989182 
	C171.791153,160.045456 170.195709,161.226746 169.957214,164.641663 
	C169.716553,168.087769 171.578888,168.858765 174.302612,168.970657 
	C183.198532,169.336151 192.093323,169.796860 200.993454,169.972321 
	C209.322250,170.136520 217.658661,170.066605 225.988831,169.927032 
	C228.984634,169.876862 231.972000,169.323700 234.609589,169.038330 
	C235.964554,163.429672 233.809952,161.905548 229.135132,161.868851 
	C226.993958,161.852020 224.832413,160.254578 222.743988,159.242218 
	C221.469315,158.624329 220.294083,157.080978 219.112228,157.119522 
	C214.561752,157.267914 210.026627,157.886429 204.608047,158.415344 
	C203.063614,157.272461 200.380692,153.859985 197.235657,153.361160 
	C194.091797,152.862518 190.485657,155.278519 186.551834,156.958405 
M261.994293,130.624466 
	C263.076202,131.742661 264.140625,133.813110 265.242676,133.833313 
	C277.722656,134.062103 290.211304,134.100388 302.688782,133.810013 
	C304.145569,133.776093 305.549286,131.462540 306.977570,130.205826 
	C305.884094,129.124954 304.975189,127.553864 303.661072,127.059074 
	C300.292938,125.790955 296.454681,125.547279 293.336914,123.891365 
	C288.736908,121.448189 284.111389,120.775017 280.062622,123.679161 
	C275.874176,126.683510 271.630646,127.241158 266.804230,127.162903 
	C265.225006,127.137299 263.617645,128.849915 261.994293,130.624466 
M385.857422,139.317032 
	C384.150574,138.881531 382.461548,138.186646 380.732941,138.067810 
	C377.695312,137.858963 374.976929,138.303741 372.778137,134.799484 
	C371.903320,133.405273 366.318024,133.077774 364.695892,134.436295 
	C361.363098,137.227493 358.213867,138.347839 354.021240,138.190338 
	C352.732178,138.141937 350.732544,139.811661 350.242889,141.133499 
	C349.852203,142.188080 350.896637,144.679169 351.946014,145.175629 
	C354.190125,146.237289 356.835236,146.787613 359.342621,146.888657 
	C365.144653,147.122452 370.969604,147.141968 376.771606,146.908264 
	C381.289398,146.726303 386.331970,148.512192 390.560638,143.828094 
	C389.047028,142.405487 387.725922,141.163818 385.857422,139.317032 
M484.018433,174.424316 
	C485.027985,175.934158 486.697876,178.855484 486.946594,178.739090 
	C489.981445,177.319244 492.807556,175.453262 496.432831,173.250244 
	C500.415833,177.226196 503.905792,174.890671 507.278748,170.315079 
	C511.040771,165.211700 505.010620,163.935608 503.688538,160.897980 
	C503.458862,160.370270 499.373230,160.568008 498.068573,161.643585 
	C494.476105,164.605347 491.778229,168.578949 486.558838,169.343323 
	C485.527008,169.494446 484.856995,172.116318 484.018433,174.424316 
M430.820740,157.663406 
	C427.316681,153.848969 418.420746,152.664505 414.937653,155.602188 
	C414.499603,155.971603 413.970642,156.968430 414.131775,157.179230 
	C414.679016,157.895172 415.527435,158.899368 416.242157,158.884720 
	C420.908325,158.789154 425.569611,158.454468 430.820740,157.663406 
M277.859894,277.662964 
	C275.198212,277.750732 275.198212,277.750732 276.201355,281.371460 
	C276.964691,280.092560 277.468414,279.248657 277.859894,277.662964 
z"/>
<path fill="#EAD9C1" opacity="1.000000" stroke="none" 
	d="
M491.004425,330.928040 
	C500.532959,331.955200 510.071960,332.898895 519.579834,334.090759 
	C521.185974,334.292114 522.658020,335.563202 524.714600,336.604736 
	C520.451477,341.480225 514.963318,340.330505 510.353210,340.862762 
	C495.411041,342.588013 480.411896,344.003815 465.395813,344.843231 
	C454.434113,345.456055 443.409576,344.858826 432.415680,345.001404 
	C413.330750,345.248932 394.249084,345.784821 375.163849,345.962067 
	C331.255127,346.369995 287.345428,346.747467 243.435303,346.897095 
	C228.032227,346.949585 212.626709,346.301331 197.222366,345.970520 
	C181.804550,345.639374 166.364273,345.707275 150.976120,344.845398 
	C138.589584,344.151550 126.273293,342.258423 113.911324,341.045288 
	C108.515991,340.515839 103.082535,340.383057 97.670662,340.008270 
	C96.388687,339.919495 94.967926,339.867554 93.893837,339.280884 
	C92.752281,338.657379 91.946899,337.418396 90.994720,336.448181 
	C92.014389,335.622467 92.946159,334.237976 94.067955,334.061493 
	C101.442566,332.901306 108.861847,332.028168 116.258141,331.000793 
	C118.458183,330.695190 120.631233,330.195282 123.259979,329.656128 
	C126.705902,336.917175 126.705902,336.919434 135.041870,336.921295 
	C143.661942,336.923218 152.282028,336.921051 160.902100,336.919037 
	C170.549713,336.916779 170.549713,336.915985 173.469589,328.023926 
	C179.711182,328.034760 185.501404,328.275299 191.253204,327.910522 
	C195.194580,327.660553 199.082520,326.568207 203.161896,326.228424 
	C203.586273,327.718964 203.997498,328.822937 204.074677,329.949799 
	C204.544388,336.809509 204.613159,336.921692 211.259415,336.929077 
	C222.193527,336.941193 233.127670,336.930786 244.061798,336.921448 
	C251.137268,336.915405 251.100723,336.904663 251.906921,329.599091 
	C252.048126,328.319550 252.640976,327.089844 253.488037,325.904419 
	C260.705933,325.978882 267.462616,326.073669 274.215302,325.949585 
	C276.879761,325.900665 279.535278,325.364044 282.448334,325.319336 
	C283.113525,327.844604 283.832245,330.096008 283.861786,332.356415 
	C283.901642,335.408051 284.817627,336.966125 288.143280,336.944702 
	C301.071320,336.861481 314.000488,336.879364 326.928711,336.948517 
	C329.966156,336.964752 330.949188,335.544952 331.029968,332.691803 
	C331.103638,330.090240 331.656830,327.502228 332.379883,325.106873 
	C334.319183,325.545563 335.874786,325.973419 337.435852,325.994080 
	C345.293274,326.098206 353.152069,326.096069 361.068787,326.508606 
	C361.930786,329.300934 362.734375,331.715912 363.658997,334.474945 
	C365.182098,335.515289 366.584106,336.211578 368.278503,337.210480 
	C381.360931,337.654053 394.151337,337.866943 406.940460,337.809662 
	C408.052734,337.804688 409.157013,336.019684 410.230957,334.667725 
	C410.240906,333.223816 410.284943,332.173676 410.631470,331.035278 
	C411.608063,329.945435 412.282166,328.943787 412.978088,327.969910 
	C412.999969,327.997620 412.941711,327.957947 413.159241,327.899353 
	C413.640381,327.676056 413.832153,327.450348 414.373352,327.229980 
	C423.094330,327.540741 431.393463,327.840210 439.694977,327.937744 
	C440.460022,327.946716 441.240204,326.668396 441.981720,326.407440 
	C442.277954,328.771454 442.896545,330.719971 442.868927,332.659302 
	C442.821503,335.986908 444.407837,336.958313 447.460999,336.939484 
	C460.227814,336.860657 472.995544,336.863556 485.762543,336.919464 
	C488.631927,336.932007 490.213593,335.928802 490.156738,332.800049 
	C490.564758,332.587921 490.671936,332.380127 490.770691,331.821167 
	C490.928375,331.333282 490.966400,331.130646 491.004425,330.928040 
z"/>
<path fill="#85B57C" opacity="1.000000" stroke="none" 
	d="
M173.001831,327.995636 
	C170.549713,336.915985 170.549713,336.916779 160.902100,336.919037 
	C152.282028,336.921051 143.661942,336.923218 135.041870,336.921295 
	C126.705902,336.919434 126.705902,336.917175 123.439438,329.279663 
	C123.297874,320.993988 123.381241,312.955719 123.556381,304.919464 
	C123.669777,299.716187 123.917351,294.515839 124.904404,289.190186 
	C131.134521,289.074066 136.565048,289.081940 142.096939,289.469147 
	C145.910339,291.251221 149.617096,292.577637 153.436340,289.075623 
	C156.254196,289.080292 158.627975,289.112427 161.105377,289.519318 
	C161.568985,290.212585 161.884109,290.721802 162.296234,290.818848 
	C165.055862,291.468323 169.015289,291.144318 170.299149,292.853516 
	C171.769897,294.811523 170.881012,298.548767 170.997116,301.513794 
	C171.035995,302.507019 170.663376,303.710876 171.102020,304.447174 
	C171.720139,305.484680 172.918213,306.176666 173.868301,307.016418 
	C174.584305,307.674225 175.293716,308.895081 176.017334,308.903534 
	C184.129593,308.998810 192.244263,308.924286 200.357513,308.830780 
	C200.939865,308.824036 201.516373,308.311707 202.856155,307.942688 
	C204.410339,304.808533 205.846710,301.765778 205.844650,298.723938 
	C205.841644,294.326355 206.100418,290.607086 211.348190,289.050171 
	C212.132690,289.048035 212.581177,289.070282 213.116241,289.238892 
	C213.458466,289.287994 213.714111,289.190704 214.311462,289.069275 
	C215.109436,289.059174 215.565704,289.073242 216.171692,289.293091 
	C216.875336,289.356934 217.429306,289.215057 218.323090,289.049500 
	C219.116653,289.040466 219.570389,289.055115 220.293900,289.335754 
	C223.481171,289.986481 226.389465,290.574249 229.318375,290.706970 
	C233.390381,290.891449 237.485489,290.874268 241.554703,290.651337 
	C243.051727,290.569275 244.503204,289.656219 246.355408,289.083008 
	C247.498520,289.069183 248.261688,289.094635 249.077896,289.527466 
	C249.420425,294.708191 249.553268,299.498718 250.074387,304.246613 
	C250.290863,306.218872 251.336426,308.100098 251.846191,310.377258 
	C251.230560,312.981354 250.507645,315.224823 250.455658,317.483765 
	C250.436493,318.317078 251.998520,319.186768 252.889587,320.451782 
	C252.968262,322.521484 252.996750,324.179291 253.025223,325.837128 
	C252.640976,327.089844 252.048126,328.319550 251.906921,329.599091 
	C251.100723,336.904663 251.137268,336.915405 244.061798,336.921448 
	C233.127670,336.930786 222.193527,336.941193 211.259415,336.929077 
	C204.613159,336.921692 204.544388,336.809509 204.074677,329.949799 
	C203.997498,328.822937 203.586273,327.718964 203.142273,325.808197 
	C202.600815,322.360443 202.246536,319.708862 202.122742,316.948303 
	C202.569641,316.582764 202.786057,316.326233 203.293457,315.792053 
	C203.584473,313.806549 203.584473,312.098694 203.584473,310.399567 
	C192.860565,310.399567 182.635193,310.399567 170.867020,310.399567 
	C172.244400,313.215027 173.177017,315.121338 173.924042,317.404175 
	C173.492920,321.185669 173.247375,324.590668 173.001831,327.995636 
M163.034714,309.507172 
	C163.034714,309.507172 163.093124,309.015015 163.649368,308.570679 
	C164.127411,307.303986 164.605453,306.037262 165.083496,304.770538 
	C164.711578,304.272064 164.339645,303.773560 163.967712,303.275085 
	C161.307129,304.495056 158.646530,305.715057 155.290924,307.023132 
	C154.851471,307.236023 154.291977,307.341278 153.990326,307.677704 
	C147.975342,314.386322 148.044464,314.298401 140.882019,309.454803 
	C139.837204,308.748260 136.920593,308.870300 136.503906,309.574982 
	C135.616776,311.075287 134.892044,314.014435 135.711273,314.943024 
	C138.869461,318.522736 142.534073,321.707123 146.313797,324.648346 
	C147.183899,325.325439 149.907639,325.038696 150.671432,324.194275 
	C154.439346,320.028656 157.835068,315.526428 161.847458,311.027191 
	C162.166946,310.667023 162.486420,310.306885 163.034714,309.507172 
M244.985733,306.921234 
	C244.874695,305.374786 245.352890,303.340393 244.548050,302.368469 
	C241.470474,298.651978 239.885742,299.332214 235.116135,305.974731 
	C234.717560,306.271851 234.256622,306.512909 233.930603,306.875305 
	C231.931824,309.097107 230.200485,312.802887 227.918076,313.174133 
	C225.666748,313.540344 223.011658,310.109741 220.252045,309.190033 
	C218.747635,308.688721 216.171036,309.437836 214.998505,310.573486 
	C214.165970,311.379852 214.166809,314.438141 215.017303,315.342651 
	C218.193802,318.720886 221.720123,321.836548 225.467529,324.567261 
	C226.466644,325.295258 229.424103,324.938477 230.282730,323.991699 
	C235.184479,318.586670 239.723724,312.852875 244.985733,306.921234 
z"/>
<path fill="#82B57B" opacity="1.000000" stroke="none" 
	d="
M367.986115,336.907898 
	C366.584106,336.211578 365.182098,335.515289 363.798889,334.047607 
	C363.613434,330.119110 363.409119,326.962006 363.459045,323.523560 
	C363.713776,318.485352 363.746429,313.727814 363.648132,308.973022 
	C363.640991,308.628418 362.681824,308.303497 362.117859,307.505585 
	C362.054138,302.727081 362.306732,298.390045 361.949585,294.103790 
	C361.554169,289.358154 363.996002,288.010071 368.055115,287.934174 
	C371.690247,287.866211 375.324249,287.737000 379.164673,287.869476 
	C380.538025,288.116119 381.705505,288.128082 382.872955,288.140076 
	C386.715881,288.433929 390.554382,288.863098 394.402802,288.989288 
	C399.865387,289.168396 405.335236,289.124573 410.573090,289.173889 
	C410.991608,296.416412 411.329437,302.262329 411.845520,308.757507 
	C412.015594,309.594086 412.007416,309.781403 411.625366,310.057434 
	C410.883881,313.109283 410.516296,316.072479 410.244263,319.425171 
	C410.565369,322.522461 410.790955,325.230225 410.895325,328.253967 
	C410.625702,329.421173 410.477325,330.272369 410.328949,331.123535 
	C410.284943,332.173676 410.240906,333.223816 409.818390,334.822327 
	C407.654999,335.607544 405.871338,336.037659 404.084991,336.049316 
	C393.804993,336.116455 383.524048,336.046295 373.244171,336.123047 
	C371.489624,336.136139 369.738708,336.634003 367.986115,336.907898 
z"/>
<path fill="#82B67B" opacity="1.000000" stroke="none" 
	d="
M489.983948,332.870361 
	C490.213593,335.928802 488.631927,336.932007 485.762543,336.919464 
	C472.995544,336.863556 460.227814,336.860657 447.460999,336.939484 
	C444.407837,336.958313 442.821503,335.986908 442.868927,332.659302 
	C442.896545,330.719971 442.277954,328.771454 441.975037,325.976318 
	C441.615417,322.433838 441.230835,319.742065 441.237518,316.965149 
	C442.100891,314.583527 442.573029,312.287079 443.328613,309.686890 
	C443.741364,305.245697 444.171356,301.089935 443.919464,296.975891 
	C443.641632,292.438599 445.151581,290.730591 449.849518,290.884705 
	C454.884033,291.049866 459.947723,290.326569 465.297546,289.968750 
	C466.093842,289.683075 466.591248,289.419647 467.198242,288.876770 
	C467.351532,288.200195 467.395203,287.803040 467.669037,287.308228 
	C468.228668,287.169464 468.558167,287.128387 468.887634,287.087341 
	C469.778717,287.737457 470.645172,288.905029 471.565063,288.948761 
	C475.688568,289.144897 479.832794,288.892609 483.958069,289.069794 
	C485.879883,289.152344 487.775604,289.843750 489.854553,290.960388 
	C490.014923,292.771545 490.003845,293.881439 489.701965,295.291565 
	C489.273682,305.334900 489.095337,315.077820 489.044769,324.821442 
	C489.037567,326.211395 489.649353,327.604584 490.076172,329.206360 
	C490.358276,329.682800 490.598389,329.874603 490.898071,329.991882 
	C490.898071,329.991882 491.015961,330.452667 491.010193,330.690338 
	C490.966400,331.130646 490.928375,331.333282 490.632629,331.916870 
	C490.206360,332.462494 490.076050,332.653351 489.983948,332.870361 
z"/>
<path fill="#85B57C" opacity="1.000000" stroke="none" 
	d="
M331.998688,324.908264 
	C331.656830,327.502228 331.103638,330.090240 331.029968,332.691803 
	C330.949188,335.544952 329.966156,336.964752 326.928711,336.948517 
	C314.000488,336.879364 301.071320,336.861481 288.143280,336.944702 
	C284.817627,336.966125 283.901642,335.408051 283.861786,332.356415 
	C283.832245,330.096008 283.113525,327.844604 282.380188,324.942047 
	C281.992126,321.893341 281.925690,319.491791 282.248108,316.986023 
	C283.084717,314.592438 283.532471,312.303040 284.151123,309.630981 
	C284.548004,305.122162 285.138397,300.975189 284.903900,296.875397 
	C284.635376,292.180481 286.408783,290.695465 290.970306,290.870483 
	C293.625641,290.972382 296.330170,289.791809 299.012573,289.188293 
	C300.753937,289.104950 302.495270,289.021637 304.559631,288.917908 
	C304.882629,288.897522 304.924500,289.263031 305.016235,289.569275 
	C306.100494,289.843170 307.093048,289.810822 308.482269,289.791077 
	C310.733795,289.608521 313.455475,290.800171 313.494690,287.281189 
	C316.638611,287.957001 319.423126,288.893982 322.225098,288.949554 
	C332.016693,289.143768 332.018982,289.028107 332.007233,298.770752 
	C331.995300,308.690552 331.995331,308.690552 341.667908,309.386261 
	C339.903198,309.785645 338.427429,309.984772 336.950714,309.991730 
	C330.407074,310.022552 329.429626,311.625580 332.061707,318.466705 
	C332.006073,320.898712 332.002380,322.903473 331.998688,324.908264 
M321.038086,300.617859 
	C318.195923,303.099823 315.138000,305.377502 312.555145,308.105011 
	C306.657684,314.332733 306.832245,314.306152 299.736267,309.409546 
	C298.683533,308.683105 295.617981,309.057037 294.982452,309.967804 
	C294.027069,311.336853 293.502563,314.475800 294.359222,315.379730 
	C297.648834,318.850952 301.475739,321.845062 305.307800,324.745483 
	C306.170959,325.398743 308.523041,325.544495 309.072205,324.928162 
	C314.880371,318.409637 320.462219,311.689514 326.347839,304.739929 
	C324.443146,303.188416 323.053101,302.056122 321.038086,300.617859 
z"/>
<path fill="#3A3442" opacity="1.000000" stroke="none" 
	d="
M316.960999,264.917725 
	C318.235962,261.949524 319.154572,258.756744 320.855804,256.057159 
	C325.153778,249.236893 326.042633,241.629120 326.503204,233.914993 
	C326.571838,232.765457 325.195435,231.578735 324.665161,230.333572 
	C323.713226,228.098328 322.896057,225.805664 322.507202,223.322128 
	C323.517639,223.493530 324.246063,223.766266 324.536530,224.284485 
	C326.432892,227.667328 329.197693,229.824341 333.080170,228.709518 
	C337.787781,227.357758 334.658844,223.430527 335.564087,220.749664 
	C344.429108,221.016495 344.429108,221.016495 343.948639,214.093597 
	C346.950745,213.673233 349.518341,213.294373 352.085938,212.915512 
	C352.085938,212.915512 352.050964,212.920319 352.049744,213.244293 
	C352.394745,214.035172 352.740936,214.502075 353.087158,214.968979 
	C353.087158,214.968979 353.013641,215.002670 353.015564,215.428360 
	C353.674255,219.569305 354.330994,223.284561 354.987762,226.999817 
	C359.122314,233.839615 363.256836,240.679413 367.689270,248.030930 
	C368.353180,249.016418 368.719208,249.490173 369.085266,249.963943 
	C369.085266,249.963943 369.016907,250.009766 369.043823,250.296570 
	C369.450989,251.045700 369.831268,251.508041 370.211548,251.970398 
	C371.825531,255.009872 373.439545,258.049347 374.857971,261.741455 
	C370.450958,261.930542 366.239471,261.467010 361.995789,260.808258 
	C361.963562,260.613037 361.937378,260.218170 361.942108,259.878662 
	C361.568573,259.033905 361.190308,258.528656 360.627655,257.957397 
	C360.214966,257.750977 360.037384,257.562683 359.866180,257.042664 
	C359.538208,256.528320 359.254578,256.297821 358.957275,256.055176 
	C358.943604,256.043030 358.922668,256.013031 358.930542,255.682343 
	C358.501984,254.924194 358.065582,254.496735 357.354675,253.886490 
	C351.944000,246.715775 346.807770,239.727814 341.024445,231.859497 
	C337.461273,242.733856 337.858612,253.083374 331.398346,261.213898 
	C329.473877,263.635925 328.044281,266.451141 325.981689,269.039642 
	C322.703949,267.634613 319.832458,266.276184 316.960999,264.917725 
z"/>
<path fill="#FCFAF4" opacity="1.000000" stroke="none" 
	d="
M186.817001,156.687622 
	C190.485657,155.278519 194.091797,152.862518 197.235657,153.361160 
	C200.380692,153.859985 203.063614,157.272461 204.608047,158.415344 
	C210.026627,157.886429 214.561752,157.267914 219.112228,157.119522 
	C220.294083,157.080978 221.469315,158.624329 222.743988,159.242218 
	C224.832413,160.254578 226.993958,161.852020 229.135132,161.868851 
	C233.809952,161.905548 235.964554,163.429672 234.609589,169.038330 
	C231.972000,169.323700 228.984634,169.876862 225.988831,169.927032 
	C217.658661,170.066605 209.322250,170.136520 200.993454,169.972321 
	C192.093323,169.796860 183.198532,169.336151 174.302612,168.970657 
	C171.578888,168.858765 169.716553,168.087769 169.957214,164.641663 
	C170.195709,161.226746 171.791153,160.045456 175.004044,159.989182 
	C179.065887,159.918045 183.822144,162.191864 186.817001,156.687622 
z"/>
<path fill="#82B57B" opacity="1.000000" stroke="none" 
	d="
M471.042450,183.190704 
	C476.951752,183.245529 482.999207,182.516052 488.740051,183.527237 
	C498.997742,185.334015 505.453888,193.381805 512.575256,200.087341 
	C514.863281,202.241714 516.694458,204.881287 518.381348,207.645264 
	C516.900391,208.198227 515.779663,208.524338 514.643677,208.591843 
	C507.649109,209.007507 500.389954,208.937073 495.203949,203.761032 
	C491.117767,199.682739 486.972656,196.482727 481.506897,194.595490 
	C476.149414,192.745636 472.212494,189.117020 471.042450,183.190704 
z"/>
<path fill="#413C4A" opacity="1.000000" stroke="none" 
	d="
M335.139130,220.672333 
	C334.658844,223.430527 337.787781,227.357758 333.080170,228.709518 
	C329.197693,229.824341 326.432892,227.667328 324.536530,224.284485 
	C324.246063,223.766266 323.517639,223.493530 322.682861,223.042816 
	C322.315643,222.544067 322.257324,222.109741 322.566956,221.284805 
	C323.530975,220.359787 324.605988,219.861191 324.649078,219.285461 
	C325.072174,213.625809 325.323608,207.953323 325.633942,202.093323 
	C323.398529,203.882874 320.867035,205.688629 318.602264,207.782867 
	C316.203033,210.001450 314.156860,212.602036 311.755829,214.818359 
	C310.682617,215.809006 309.119232,216.268600 307.045380,217.352112 
	C309.014008,211.189377 310.492035,206.562393 311.970093,201.935425 
	C311.970093,201.935425 312.034332,201.475647 312.435791,201.234024 
	C318.116302,197.779373 320.294159,192.540070 321.989105,186.985260 
	C321.989105,186.985260 321.998840,187.000610 322.330505,186.969910 
	C324.755432,186.625427 326.848694,186.311661 329.243164,186.262177 
	C331.409302,197.908417 333.274200,209.290375 335.139130,220.672333 
z"/>
<path fill="#6D9566" opacity="1.000000" stroke="none" 
	d="
M470.636353,183.117294 
	C472.212494,189.117020 476.149414,192.745636 481.506897,194.595490 
	C486.972656,196.482727 491.117767,199.682739 495.203949,203.761032 
	C500.389954,208.937073 507.649109,209.007507 514.643677,208.591843 
	C515.779663,208.524338 516.900391,208.198227 518.440552,207.979568 
	C516.578796,209.307159 514.395203,211.582245 512.013733,211.812622 
	C504.606323,212.529236 497.248138,211.973160 490.218811,208.855011 
	C483.673920,205.951752 471.331787,208.187195 467.430145,212.505325 
	C467.130127,212.443665 467.101135,212.232971 467.109802,211.740692 
	C467.083252,203.425674 467.087738,195.602325 466.961700,187.781067 
	C466.946259,186.821930 466.232330,185.874039 465.688934,184.915833 
	C465.535767,184.910736 465.229431,184.920120 465.229431,184.920120 
	C466.896362,184.294708 468.563324,183.669296 470.636353,183.117294 
z"/>
<path fill="#413C4A" opacity="1.000000" stroke="none" 
	d="
M371.980133,183.060669 
	C371.980133,183.060669 372.418976,182.990662 372.954895,182.968018 
	C373.994263,182.631790 374.497742,182.318207 375.001251,182.004623 
	C375.502686,181.766907 376.004150,181.529205 376.906494,181.518723 
	C376.713531,183.312592 376.092133,184.869446 375.532471,186.448196 
	C374.714630,188.755142 373.941071,191.077774 373.148621,193.393738 
	C371.693970,193.931702 370.239288,194.469696 368.236755,194.813721 
	C365.420135,194.767654 362.430359,190.797867 361.009674,195.789246 
	C356.924744,195.178055 352.839844,194.566849 348.078674,193.854477 
	C348.372406,196.773544 348.595062,198.986237 348.356293,201.602036 
	C346.779755,202.069962 345.664612,202.134796 344.399841,202.076294 
	C344.048737,201.768707 343.923004,201.542328 343.909241,200.881714 
	C342.940887,198.991699 341.936279,197.493805 340.855011,195.751434 
	C340.788269,195.168106 340.798187,194.829300 340.860596,194.050583 
	C340.237518,192.087906 339.561920,190.565125 338.632416,188.855835 
	C337.295166,187.187561 336.211853,185.705795 335.504089,184.154602 
	C336.704102,182.715103 337.528503,181.345016 338.352905,179.974930 
	C342.485931,180.916779 346.588379,182.035629 350.759674,182.756012 
	C356.066772,183.672577 361.424622,184.307983 366.774261,184.950821 
	C367.503998,185.038483 368.312775,184.468567 369.768433,184.073929 
	C370.961334,183.650055 371.470734,183.355362 371.980133,183.060669 
z"/>
<path fill="#FCFAF4" opacity="1.000000" stroke="none" 
	d="
M262.008728,130.196030 
	C263.617645,128.849915 265.225006,127.137299 266.804230,127.162903 
	C271.630646,127.241158 275.874176,126.683510 280.062622,123.679161 
	C284.111389,120.775017 288.736908,121.448189 293.336914,123.891365 
	C296.454681,125.547279 300.292938,125.790955 303.661072,127.059074 
	C304.975189,127.553864 305.884094,129.124954 306.977570,130.205841 
	C305.549286,131.462540 304.145569,133.776093 302.688782,133.810013 
	C290.211304,134.100388 277.722656,134.062103 265.242676,133.833313 
	C264.140625,133.813110 263.076202,131.742661 262.008728,130.196030 
z"/>
<path fill="#FCFAF4" opacity="1.000000" stroke="none" 
	d="
M386.131104,139.619598 
	C387.725922,141.163818 389.047028,142.405487 390.560638,143.828094 
	C386.331970,148.512192 381.289398,146.726303 376.771606,146.908264 
	C370.969604,147.141968 365.144653,147.122452 359.342621,146.888657 
	C356.835236,146.787613 354.190125,146.237289 351.946014,145.175629 
	C350.896637,144.679169 349.852203,142.188080 350.242889,141.133499 
	C350.732544,139.811661 352.732178,138.141937 354.021240,138.190338 
	C358.213867,138.347839 361.363098,137.227493 364.695892,134.436295 
	C366.318024,133.077774 371.903320,133.405273 372.778137,134.799484 
	C374.976929,138.303741 377.695312,137.858963 380.732941,138.067810 
	C382.461548,138.186646 384.150574,138.881531 386.131104,139.619598 
z"/>
<path fill="#3A3442" opacity="1.000000" stroke="none" 
	d="
M311.597565,201.930191 
	C310.492035,206.562393 309.014008,211.189377 307.045380,217.352112 
	C309.119232,216.268600 310.682617,215.809006 311.755829,214.818359 
	C314.156860,212.602036 316.203033,210.001450 318.602264,207.782867 
	C320.867035,205.688629 323.398529,203.882874 325.633942,202.093323 
	C325.323608,207.953323 325.072174,213.625809 324.649078,219.285461 
	C324.605988,219.861191 323.530975,220.359787 322.604919,220.956421 
	C322.274963,217.323959 322.274963,213.629257 322.274963,209.499039 
	C313.022583,217.575958 304.314362,225.177856 294.888855,232.930847 
	C293.096619,233.060059 292.021606,233.038177 290.946625,233.016296 
	C290.946625,233.016296 291.002838,233.004486 291.058105,232.687561 
	C290.120209,231.256439 289.127045,230.142258 288.185059,228.720795 
	C289.145569,227.593506 290.054962,226.773529 291.276367,225.843643 
	C292.682922,224.152054 293.777435,222.570343 294.871948,220.988647 
	C299.857178,214.994690 304.836212,208.995544 309.840271,203.017365 
	C310.209686,202.576065 310.759277,202.285568 311.597565,201.930191 
z"/>
<path fill="#FCFAF4" opacity="1.000000" stroke="none" 
	d="
M484.019287,174.011536 
	C484.856995,172.116318 485.527008,169.494446 486.558838,169.343323 
	C491.778229,168.578949 494.476105,164.605347 498.068573,161.643585 
	C499.373230,160.568008 503.458862,160.370270 503.688538,160.897980 
	C505.010620,163.935608 511.040771,165.211700 507.278748,170.315079 
	C503.905792,174.890671 500.415833,177.226196 496.432831,173.250244 
	C492.807556,175.453262 489.981445,177.319244 486.946594,178.739090 
	C486.697876,178.855484 485.027985,175.934158 484.019287,174.011536 
z"/>
<path fill="#473D49" opacity="1.000000" stroke="none" 
	d="
M362.028015,261.003479 
	C366.239471,261.467010 370.450958,261.930542 374.882568,262.093445 
	C377.242340,266.222961 379.332489,270.678101 381.547668,275.070160 
	C382.354248,276.669434 383.458740,278.118439 384.593475,280.042236 
	C383.843628,281.296112 382.927582,282.143738 382.005798,282.995667 
	C382.000061,283.000000 381.991608,283.011200 381.604309,283.001831 
	C379.473328,282.665894 377.729675,282.339355 375.992249,282.007385 
	C375.998505,282.001984 375.987396,282.010529 375.994995,281.617371 
	C375.895691,279.099915 376.664001,275.989471 372.423828,278.001587 
	C368.801575,272.165283 365.414795,266.584381 362.028015,261.003479 
z"/>
<path fill="#473D49" opacity="1.000000" stroke="none" 
	d="
M316.591125,264.917145 
	C319.832458,266.276184 322.703949,267.634613 325.897522,269.400879 
	C321.148560,274.547882 316.077454,279.287140 310.970398,283.736450 
	C308.606232,282.629181 306.278076,281.811829 303.949921,280.994446 
	C305.372437,278.466858 306.515594,275.719849 308.285858,273.465240 
	C310.678741,270.417664 313.553314,267.748230 316.591125,264.917145 
z"/>
<path fill="#88A77A" opacity="1.000000" stroke="none" 
	d="
M298.551636,289.114838 
	C296.330170,289.791809 293.625641,290.972382 290.970306,290.870483 
	C286.408783,290.695465 284.635376,292.180481 284.903900,296.875397 
	C285.138397,300.975189 284.548004,305.122162 283.684723,309.623871 
	C272.699921,310.007202 262.352448,310.014984 252.004959,310.022736 
	C251.336426,308.100098 250.290863,306.218872 250.074387,304.246613 
	C249.553268,299.498718 249.420425,294.708191 249.354523,289.467896 
	C249.766006,288.983612 249.953903,288.966339 250.141800,288.949036 
	C251.087677,291.199493 252.803024,293.433105 252.852798,295.703217 
	C253.145004,309.029205 253.013901,309.025665 266.564850,308.969147 
	C271.545898,308.948364 276.527069,308.965790 282.009033,308.965790 
	C282.009033,304.084015 282.277313,299.610291 281.936249,295.183502 
	C281.569122,290.418457 284.044495,289.049500 288.097687,289.021606 
	C291.428497,288.998657 294.759674,289.032654 298.551636,289.114838 
z"/>
<path fill="#473D49" opacity="1.000000" stroke="none" 
	d="
M373.500977,193.264801 
	C373.941071,191.077774 374.714630,188.755142 375.532471,186.448196 
	C376.092133,184.869446 376.713531,183.312592 377.178436,181.460449 
	C380.835815,179.166977 384.622070,177.159042 388.858032,175.447159 
	C390.562714,177.880035 391.817688,180.016861 393.072693,182.153671 
	C386.666229,185.814392 380.259766,189.475128 373.500977,193.264801 
M375.580627,190.515121 
	C375.580627,190.515121 375.477051,190.575043 375.580627,190.515121 
z"/>
<path fill="#E1B1A5" opacity="1.000000" stroke="none" 
	d="
M338.191132,179.585022 
	C337.528503,181.345016 336.704102,182.715103 335.162415,184.072891 
	C333.975830,184.051422 333.506531,184.042236 333.001495,183.692139 
	C331.632812,182.379944 330.299896,181.408630 328.966949,180.437332 
	C328.925598,181.042801 328.884277,181.648270 328.480469,182.168564 
	C327.380157,182.046906 326.642242,182.010422 325.904358,181.973938 
	C326.274170,179.924240 326.644012,177.874557 327.383820,175.414154 
	C327.896027,174.214401 328.105316,173.430099 328.161530,172.634979 
	C328.217529,171.842239 328.119995,171.038620 328.442352,170.088715 
	C331.841339,168.964645 334.887695,167.991638 337.934082,167.018646 
	C337.965851,171.077469 337.997589,175.136276 338.191132,179.585022 
z"/>
<path fill="#367093" opacity="1.000000" stroke="none" 
	d="
M288.860168,235.964127 
	C289.062775,248.377762 285.661804,260.076447 281.380737,271.434662 
	C280.650909,270.126709 280.314819,269.062744 280.141541,267.644409 
	C281.857269,260.287506 283.504547,253.303940 284.919312,246.273590 
	C285.533600,243.221069 285.669525,240.072266 285.974030,236.674927 
	C285.881622,236.190079 285.837860,235.997467 285.821899,235.813965 
	C285.849701,235.823105 285.904633,235.835785 286.271667,235.895462 
	C287.379211,235.958130 288.119690,235.961136 288.860168,235.964127 
z"/>
<path fill="#88A77A" opacity="1.000000" stroke="none" 
	d="
M464.998657,289.990997 
	C459.947723,290.326569 454.884033,291.049866 449.849518,290.884705 
	C445.151581,290.730591 443.641632,292.438599 443.919464,296.975891 
	C444.171356,301.089935 443.741364,305.245697 443.063110,309.679016 
	C442.337738,309.964355 442.161346,309.953796 441.987854,309.617035 
	C441.680298,308.541595 441.369843,307.792328 441.059387,307.043030 
	C441.039398,304.395752 441.006195,301.748505 441.001801,299.101196 
	C440.987427,290.431183 440.912659,289.952240 449.200287,288.588501 
	C454.057892,287.789154 459.214386,288.806458 464.528992,289.003387 
	C464.821503,289.000183 464.891388,289.245361 464.928772,289.430237 
	C464.966187,289.615112 464.998657,289.990997 464.998657,289.990997 
z"/>
<path fill="#635755" opacity="1.000000" stroke="none" 
	d="
M467.101135,212.232971 
	C467.101135,212.232971 467.130127,212.443665 467.091553,212.542542 
	C466.965729,212.883896 466.878448,213.126358 466.490173,214.072144 
	C466.106873,236.722000 466.042664,258.668671 465.908081,280.614868 
	C465.897308,282.371765 465.401489,284.125702 465.131042,285.881012 
	C465.117798,252.540955 465.104553,219.200882 465.160370,185.390472 
	C465.229431,184.920120 465.535767,184.910736 465.734650,185.390076 
	C465.944031,192.301575 465.855865,198.736206 466.016510,205.164597 
	C466.075562,207.528275 466.722443,209.877274 467.101135,212.232971 
z"/>
<path fill="#5E8BAB" opacity="1.000000" stroke="none" 
	d="
M279.978760,267.998779 
	C280.314819,269.062744 280.650909,270.126709 281.020020,271.527710 
	C278.830231,271.017456 276.607422,270.170166 273.927002,269.148468 
	C276.183838,259.137299 278.283936,249.452652 280.607666,239.821930 
	C281.077057,237.876541 282.392883,236.135376 283.686249,234.398926 
	C284.634064,234.933456 285.214081,235.369141 285.794098,235.804840 
	C285.837860,235.997467 285.881622,236.190079 285.602051,236.730423 
	C284.316803,238.482849 282.872131,239.763641 282.474426,241.313110 
	C280.485077,249.064041 278.883148,256.914246 276.903564,264.667938 
	C276.101410,267.809967 277.731476,268.022797 279.978760,267.998779 
z"/>
<path fill="#448BC2" opacity="1.000000" stroke="none" 
	d="
M290.964355,225.953552 
	C290.054962,226.773529 289.145569,227.593506 287.942261,228.821625 
	C287.446838,229.506836 287.245300,229.783936 286.790100,230.135330 
	C286.075714,230.463257 285.614960,230.716888 285.154236,230.970520 
	C285.116486,228.559921 285.078735,226.149307 285.459778,223.281647 
	C286.600677,221.088699 287.289612,219.338074 288.052307,217.620209 
	C289.330353,214.741730 290.655426,211.884109 292.266785,209.019318 
	C293.090363,209.299759 293.607849,209.578629 294.039398,210.255356 
	C292.957123,215.753342 291.960724,220.853439 290.964355,225.953552 
z"/>
<path fill="#3A3442" opacity="1.000000" stroke="none" 
	d="
M465.068481,286.252686 
	C465.401489,284.125702 465.897308,282.371765 465.908081,280.614868 
	C466.042664,258.668671 466.106873,236.722000 466.399750,214.447968 
	C467.090271,217.501343 467.570190,220.882202 467.682007,225.005341 
	C467.298981,238.052734 467.284058,250.357834 467.195923,263.147644 
	C467.228088,271.556854 467.333466,279.481384 467.438873,287.405914 
	C467.395203,287.803040 467.351532,288.200195 466.829773,288.831665 
	C465.864899,289.125793 465.378143,289.185577 464.891388,289.245361 
	C464.891388,289.245361 464.821503,289.000183 464.932495,288.937134 
	C465.030914,288.124176 465.018372,287.374268 465.068481,286.252686 
z"/>
<path fill="#FCFAF4" opacity="1.000000" stroke="none" 
	d="
M430.526611,157.930679 
	C425.569611,158.454468 420.908325,158.789154 416.242157,158.884720 
	C415.527435,158.899368 414.679016,157.895172 414.131775,157.179230 
	C413.970642,156.968430 414.499603,155.971603 414.937653,155.602188 
	C418.420746,152.664505 427.316681,153.848969 430.526611,157.930679 
z"/>
<path fill="#3A3442" opacity="1.000000" stroke="none" 
	d="
M382.011536,282.991364 
	C382.927582,282.143738 383.843628,281.296112 384.916992,280.167267 
	C387.544403,278.990875 389.867188,278.532104 391.042633,282.267975 
	C388.497009,283.965729 385.846588,285.733368 383.034576,287.820557 
	C381.705505,288.128082 380.538025,288.116119 379.108582,287.533356 
	C377.893066,285.312622 376.939545,283.662720 375.986023,282.012787 
	C377.729675,282.339355 379.473328,282.665894 381.662048,283.128235 
	C382.186493,283.310516 382.265900,283.356995 382.345276,283.403473 
	C382.234039,283.266113 382.122772,283.128723 382.011536,282.991364 
z"/>
<path fill="#473D49" opacity="1.000000" stroke="none" 
	d="
M338.020172,166.634583 
	C334.887695,167.991638 331.841339,168.964645 328.417786,169.726944 
	C327.407013,168.359268 326.773376,167.202286 326.139740,166.045288 
	C326.758606,163.084595 328.535889,161.941681 331.582642,162.005356 
	C334.781006,162.072205 337.569031,162.301514 338.020172,166.634583 
z"/>
<path fill="#3A3442" opacity="1.000000" stroke="none" 
	d="
M303.645020,281.151276 
	C306.278076,281.811829 308.606232,282.629181 310.984314,284.072571 
	C311.737244,285.511810 312.440247,286.324982 313.143280,287.138184 
	C313.455475,290.800171 310.733795,289.608521 308.225037,289.553284 
	C306.688904,289.289612 305.806702,289.276306 304.924500,289.263031 
	C304.924500,289.263031 304.882629,288.897522 304.952087,288.726929 
	C305.109131,285.989929 299.444611,284.757904 303.645020,281.151276 
z"/>
<path fill="#88A77A" opacity="1.000000" stroke="none" 
	d="
M173.800446,306.632935 
	C172.918213,306.176666 171.720139,305.484680 171.102020,304.447174 
	C170.663376,303.710876 171.035995,302.507019 170.997116,301.513794 
	C170.881012,298.548767 171.769897,294.811523 170.299149,292.853516 
	C169.015289,291.144318 165.055862,291.468323 162.296234,290.818848 
	C161.884109,290.721802 161.568985,290.212585 161.557541,289.471313 
	C164.643219,289.025726 167.380356,289.002838 170.117493,288.979980 
	C173.836594,291.347412 175.164124,296.507050 173.781097,302.719086 
	C173.530701,303.843750 173.737091,305.070038 173.800446,306.632935 
z"/>
<path fill="#88A77A" opacity="1.000000" stroke="none" 
	d="
M211.012192,289.074524 
	C206.100418,290.607086 205.841644,294.326355 205.844650,298.723938 
	C205.846710,301.765778 204.410339,304.808533 203.233322,307.898773 
	C202.903320,302.256744 202.956711,296.566833 203.476135,290.368774 
	C206.298859,289.598633 208.655518,289.336578 211.012192,289.074524 
z"/>
<path fill="#473D49" opacity="1.000000" stroke="none" 
	d="
M344.549469,202.199615 
	C345.664612,202.134796 346.779755,202.069962 348.308777,202.003387 
	C349.836853,205.386261 350.951080,208.770859 352.075623,212.535492 
	C349.518341,213.294373 346.950745,213.673233 343.788818,213.872986 
	C343.122864,213.156052 343.051239,212.618240 343.374084,212.022980 
	C345.800690,212.113632 347.414673,211.938049 346.507599,209.142746 
	C345.765961,206.857239 345.195709,204.516098 344.549469,202.199615 
z"/>
<path fill="#413C4A" opacity="1.000000" stroke="none" 
	d="
M294.125305,209.857483 
	C293.607849,209.578629 293.090363,209.299759 291.941467,208.946228 
	C290.534088,208.544189 289.758148,208.216843 288.982178,207.889496 
	C289.237213,206.451721 289.492249,205.013931 290.304749,203.149200 
	C293.181458,203.090195 295.500671,203.458160 297.819916,203.826111 
	C297.540924,205.654831 297.261932,207.483536 296.567932,209.681473 
	C295.477020,209.986282 294.801178,209.921875 294.125305,209.857483 
z"/>
<path fill="#C3CFAC" opacity="1.000000" stroke="none" 
	d="
M211.348190,289.050171 
	C208.655518,289.336578 206.298859,289.598633 203.557068,289.903748 
	C204.321671,289.300171 205.468857,288.096649 206.621475,288.091400 
	C220.972443,288.026123 235.324188,288.134949 249.908768,288.574036 
	C249.953903,288.966339 249.766006,288.983612 249.301483,289.060486 
	C248.261688,289.094635 247.498520,289.069183 245.890793,289.042603 
	C236.705521,289.050903 228.364822,289.060333 220.024109,289.069763 
	C219.570389,289.055115 219.116653,289.040466 217.996490,289.022430 
	C216.894043,289.041809 216.458008,289.064545 216.021988,289.087341 
	C215.565704,289.073242 215.109436,289.059174 214.076614,289.048157 
	C213.500076,289.051178 213.029678,289.092560 213.029678,289.092529 
	C212.581177,289.070282 212.132690,289.048035 211.348190,289.050171 
z"/>
<path fill="#E1B1A5" opacity="1.000000" stroke="none" 
	d="
M393.360931,181.941803 
	C391.817688,180.016861 390.562714,177.880035 389.217072,175.416687 
	C392.328888,174.015274 395.599823,172.533142 398.758789,178.120712 
	C397.352966,179.113724 395.501099,180.421814 393.360931,181.941803 
z"/>
<path fill="#367093" opacity="1.000000" stroke="none" 
	d="
M294.039398,210.255341 
	C294.801178,209.921875 295.477020,209.986282 296.491638,210.079803 
	C296.183167,213.458298 295.535889,216.807663 294.880280,220.572845 
	C293.777435,222.570343 292.682922,224.152054 291.276367,225.843658 
	C291.960724,220.853439 292.957123,215.753342 294.039398,210.255341 
z"/>
<path fill="#C3CFAC" opacity="1.000000" stroke="none" 
	d="
M169.902206,288.592010 
	C167.380356,289.002838 164.643219,289.025726 161.453918,289.096558 
	C158.627975,289.112427 156.254196,289.080292 152.980499,289.035492 
	C148.718918,289.045166 145.357239,289.067505 141.995560,289.089813 
	C136.565048,289.081940 131.134521,289.074066 125.219963,289.016846 
	C125.426826,288.640045 126.118080,288.026550 126.808601,288.027374 
	C141.101425,288.044342 155.394165,288.131104 169.902206,288.592010 
z"/>
<path fill="#635755" opacity="1.000000" stroke="none" 
	d="
M467.669037,287.308228 
	C467.333466,279.481384 467.228088,271.556854 467.323792,263.155273 
	C467.524902,262.678192 467.754150,262.793304 467.754150,262.793304 
	C468.155273,270.575409 468.556396,278.357483 468.922607,286.613464 
	C468.558167,287.128387 468.228668,287.169464 467.669037,287.308228 
z"/>
<path fill="#85B57C" opacity="1.000000" stroke="none" 
	d="
M490.963928,329.527710 
	C490.598389,329.874603 490.358276,329.682800 490.084717,328.738403 
	C489.992096,317.037354 489.992432,306.014343 489.992767,294.991364 
	C490.003845,293.881439 490.014923,292.771545 490.046448,291.245850 
	C490.389862,292.161621 490.984680,293.491425 490.993134,294.824982 
	C491.065582,306.237427 491.031799,317.650574 490.963928,329.527710 
z"/>
<path fill="#3A3442" opacity="1.000000" stroke="none" 
	d="
M321.657745,187.113007 
	C320.294159,192.540070 318.116302,197.779373 312.465210,201.003784 
	C315.170929,196.423691 318.248657,191.832230 321.657745,187.113007 
z"/>
<path fill="#C3CFAC" opacity="1.000000" stroke="none" 
	d="
M467.816040,262.342529 
	C467.754150,262.793304 467.524902,262.678192 467.397034,262.670563 
	C467.284058,250.357834 467.298981,238.052734 467.602417,225.466080 
	C467.886566,237.420273 467.882263,249.656036 467.816040,262.342529 
z"/>
<path fill="#EFE9E8" opacity="1.000000" stroke="none" 
	d="
M297.804932,203.450485 
	C295.500671,203.458160 293.181458,203.090195 290.474915,202.811523 
	C290.087616,202.900818 290.088959,202.936996 290.071991,202.667053 
	C289.971771,202.248627 289.888519,202.100143 289.805237,201.951645 
	C291.358276,200.624634 292.911285,199.297607 294.464325,197.970596 
	C295.572845,199.672012 296.681396,201.373444 297.804932,203.450485 
z"/>
<path fill="#5E8BAB" opacity="1.000000" stroke="none" 
	d="
M288.633484,208.070786 
	C289.758148,208.216843 290.534088,208.544189 291.635376,208.944626 
	C290.655426,211.884109 289.330353,214.741730 288.052307,217.620209 
	C287.289612,219.338074 286.600677,221.088699 285.534058,222.903412 
	C286.221283,218.072189 287.253052,213.162140 288.633484,208.070786 
z"/>
<path fill="#3A3442" opacity="1.000000" stroke="none" 
	d="
M325.787048,166.201416 
	C326.773376,167.202286 327.407013,168.359268 328.065186,169.878021 
	C328.119995,171.038620 328.217529,171.842239 328.161530,172.634979 
	C328.105316,173.430099 327.896027,174.214401 327.429840,175.006317 
	C322.874786,172.835114 322.881409,169.842316 325.787048,166.201416 
z"/>
<path fill="#85B57C" opacity="1.000000" stroke="none" 
	d="
M440.958130,307.457855 
	C441.369843,307.792328 441.680298,308.541595 441.521118,309.637207 
	C431.367432,309.978577 421.683319,309.973663 411.999237,309.968719 
	C412.007416,309.781403 412.015594,309.594086 412.042847,309.126160 
	C420.707001,308.888489 429.352325,308.966095 437.997070,308.925385 
	C438.951996,308.920898 439.903748,308.239929 440.958130,307.457855 
z"/>
<path fill="#473D49" opacity="1.000000" stroke="none" 
	d="
M355.042816,226.595612 
	C354.330994,223.284561 353.674255,219.569305 353.039917,215.396088 
	C356.575012,218.176590 355.980438,222.157959 355.042816,226.595612 
z"/>
<path fill="#3A3442" opacity="1.000000" stroke="none" 
	d="
M325.618103,181.950684 
	C326.642242,182.010422 327.380157,182.046906 328.501587,182.541870 
	C328.904053,183.999527 328.923004,184.998718 328.941956,185.997894 
	C326.848694,186.311661 324.755432,186.625427 322.322449,186.964218 
	C322.255859,186.177048 322.529053,185.364853 323.160858,184.126205 
	C323.665955,183.403046 323.812439,183.106339 323.958954,182.809647 
	C324.416565,182.515579 324.874207,182.221512 325.618103,181.950684 
z"/>
<path fill="#C3CFAC" opacity="1.000000" stroke="none" 
	d="
M285.030090,231.276443 
	C285.614960,230.716888 286.075714,230.463257 286.834900,230.462173 
	C287.435364,231.766922 287.737427,232.819122 287.763367,233.992645 
	C286.959656,234.687897 286.432159,235.261841 285.904633,235.835785 
	C285.904633,235.835785 285.849701,235.823105 285.821899,235.813965 
	C285.214081,235.369141 284.634064,234.933456 283.986145,234.196625 
	C284.247498,233.124451 284.576721,232.353409 285.030090,231.276443 
z"/>
<path fill="#88A77A" opacity="1.000000" stroke="none" 
	d="
M288.039520,233.871323 
	C287.737427,232.819122 287.435364,231.766922 287.088531,230.387878 
	C287.245300,229.783936 287.446838,229.506836 287.891144,229.128906 
	C289.127045,230.142258 290.120209,231.256439 291.045898,232.713531 
	C290.511536,233.317245 290.044647,233.578033 289.065308,233.912888 
	C288.381714,233.948410 288.210632,233.909866 288.039520,233.871323 
z"/>
<path fill="#473D49" opacity="1.000000" stroke="none" 
	d="
M361.374756,195.851761 
	C362.430359,190.797867 365.420135,194.767654 367.911285,194.915802 
	C366.002380,195.445984 363.871094,195.680115 361.374756,195.851761 
z"/>
<path fill="#473D49" opacity="1.000000" stroke="none" 
	d="
M277.916016,278.033875 
	C277.468414,279.248657 276.964691,280.092560 276.201355,281.371460 
	C275.198212,277.750732 275.198212,277.750732 277.916016,278.033875 
z"/>
<path fill="#5E8BAB" opacity="1.000000" stroke="none" 
	d="
M287.763367,233.992645 
	C288.210632,233.909866 288.381714,233.948410 288.811707,234.032440 
	C289.035187,234.498306 288.999786,234.918671 288.912292,235.651581 
	C288.119690,235.961136 287.379211,235.958130 286.271667,235.895462 
	C286.432159,235.261841 286.959656,234.687897 287.763367,233.992645 
z"/>
<path fill="#88A77A" opacity="1.000000" stroke="none" 
	d="
M291.094604,233.336090 
	C292.021606,233.038177 293.096619,233.060059 294.576019,233.054977 
	C293.734467,233.237305 292.488525,233.446594 291.094604,233.336090 
z"/>
<path fill="#473D49" opacity="1.000000" stroke="none" 
	d="
M370.139038,251.669250 
	C369.831268,251.508041 369.450989,251.045700 369.067566,250.263092 
	C369.398468,250.417923 369.732513,250.893036 370.139038,251.669250 
z"/>
<path fill="#473D49" opacity="1.000000" stroke="none" 
	d="
M369.106262,249.619659 
	C368.719208,249.490173 368.353180,249.016418 367.976593,248.222641 
	C368.353149,248.360199 368.740204,248.817780 369.106262,249.619659 
z"/>
<path fill="#473D49" opacity="1.000000" stroke="none" 
	d="
M371.666321,183.032684 
	C371.470734,183.355362 370.961334,183.650055 370.139557,183.939606 
	C370.335632,183.624542 370.844086,183.314621 371.666321,183.032684 
z"/>
<path fill="#473D49" opacity="1.000000" stroke="none" 
	d="
M353.095062,214.648544 
	C352.740936,214.502075 352.394745,214.035172 352.061005,213.257370 
	C352.416626,213.407013 352.759796,213.867554 353.095062,214.648544 
z"/>
<path fill="#473D49" opacity="1.000000" stroke="none" 
	d="
M374.686951,181.985153 
	C374.497742,182.318207 373.994263,182.631790 373.176086,182.947266 
	C373.365143,182.621353 373.868896,182.293518 374.686951,181.985153 
z"/>
<path fill="#413C4A" opacity="1.000000" stroke="none" 
	d="
M323.746399,182.947922 
	C323.812439,183.106339 323.665955,183.403046 323.304932,183.828857 
	C323.238220,183.667374 323.386017,183.376785 323.746399,182.947922 
z"/>
<path fill="#413C4A" opacity="1.000000" stroke="none" 
	d="
M289.546356,202.043884 
	C289.888519,202.100143 289.971771,202.248627 290.079803,202.651184 
	C289.832214,202.648895 289.559845,202.392517 289.546356,202.043884 
z"/>
<path fill="#000000" opacity="1.000000" stroke="none" 
	d="
M440.846252,317.050323 
	C441.230835,319.742065 441.615417,322.433838 442.006653,325.556702 
	C441.240204,326.668396 440.460022,327.946716 439.694977,327.937744 
	C431.393463,327.840210 423.094330,327.540741 414.115662,327.191406 
	C413.271790,327.376953 413.106750,327.667450 412.941711,327.957947 
	C412.941711,327.957947 412.999969,327.997620 412.655243,327.999146 
	C411.879181,327.979767 411.447876,327.958862 411.016541,327.937958 
	C410.790955,325.230225 410.565369,322.522461 410.577362,319.212341 
	C412.005920,318.062286 413.203033,317.045654 414.386688,317.061157 
	C417.142303,317.097260 419.896576,317.943054 422.642212,317.898346 
	C428.713196,317.799591 434.778595,317.354279 440.846252,317.050323 
z"/>
<path fill="#000000" opacity="1.000000" stroke="none" 
	d="
M173.469589,328.023926 
	C173.247375,324.590668 173.492920,321.185669 174.165558,317.388428 
	C174.592636,316.996155 175.056595,316.858307 175.518173,316.918457 
	C184.617249,317.004852 193.254761,317.031067 201.892258,317.057312 
	C202.246536,319.708862 202.600815,322.360443 202.974731,325.432220 
	C199.082520,326.568207 195.194580,327.660553 191.253204,327.910522 
	C185.501404,328.275299 179.711182,328.034760 173.469589,328.023926 
z"/>
<path fill="#000000" opacity="1.000000" stroke="none" 
	d="
M281.859253,317.090210 
	C281.925690,319.491791 281.992126,321.893341 282.126709,324.672211 
	C279.535278,325.364044 276.879761,325.900665 274.215302,325.949585 
	C267.462616,326.073669 260.705933,325.978882 253.488037,325.904419 
	C252.996750,324.179291 252.968262,322.521484 252.974411,320.095978 
	C253.361557,318.501312 253.714081,317.674286 254.526642,316.913025 
	C263.993408,317.014221 273.000122,317.049652 281.968719,317.050903 
	C281.930603,317.016724 281.859253,317.090210 281.859253,317.090210 
z"/>
<path fill="#000000" opacity="1.000000" stroke="none" 
	d="
M332.379883,325.106873 
	C332.002380,322.903473 332.006073,320.898712 332.522522,318.455444 
	C342.680908,318.014374 352.326508,318.011780 361.976074,318.443176 
	C361.656830,321.295197 361.333618,323.713226 361.010406,326.131256 
	C353.152069,326.096069 345.293274,326.098206 337.435852,325.994080 
	C335.874786,325.973419 334.319183,325.545563 332.379883,325.106873 
z"/>
<path fill="#C3CFAC" opacity="1.000000" stroke="none" 
	d="
M368.278503,337.210510 
	C369.738708,336.634003 371.489624,336.136139 373.244171,336.123047 
	C383.524048,336.046295 393.804993,336.116455 404.084991,336.049316 
	C405.871338,336.037659 407.654999,335.607544 409.852448,335.216125 
	C409.157013,336.019684 408.052734,337.804688 406.940460,337.809662 
	C394.151337,337.866943 381.360931,337.654053 368.278503,337.210510 
z"/>
<path fill="#C3CFAC" opacity="1.000000" stroke="none" 
	d="
M361.068787,326.508606 
	C361.333618,323.713226 361.656830,321.295197 362.304291,318.649963 
	C362.820618,320.216797 363.012726,322.010864 363.204834,323.804901 
	C363.409119,326.962006 363.613434,330.119110 363.677826,333.703552 
	C362.734375,331.715912 361.930786,329.300934 361.068787,326.508606 
z"/>
<path fill="#C3CFAC" opacity="1.000000" stroke="none" 
	d="
M410.895325,328.253967 
	C411.447876,327.958862 411.879181,327.979767 412.633362,327.971436 
	C412.282166,328.943787 411.608063,329.945435 410.631470,331.035278 
	C410.477325,330.272369 410.625702,329.421173 410.895325,328.253967 
z"/>
<path fill="#85B57C" opacity="1.000000" stroke="none" 
	d="
M490.156738,332.800049 
	C490.076050,332.653351 490.206360,332.462494 490.513000,332.202057 
	C490.671936,332.380127 490.564758,332.587921 490.156738,332.800049 
z"/>
<path fill="#C3CFAC" opacity="1.000000" stroke="none" 
	d="
M413.159241,327.899353 
	C413.106750,327.667450 413.271790,327.376953 413.694519,327.125031 
	C413.832153,327.450348 413.640381,327.676056 413.159241,327.899353 
z"/>
<path fill="#E9E6C4" opacity="1.000000" stroke="none" 
	d="
M244.386108,307.230774 
	C239.723724,312.852875 235.184479,318.586670 230.282730,323.991699 
	C229.424103,324.938477 226.466644,325.295258 225.467529,324.567261 
	C221.720123,321.836548 218.193802,318.720886 215.017303,315.342651 
	C214.166809,314.438141 214.165970,311.379852 214.998505,310.573486 
	C216.171036,309.437836 218.747635,308.688721 220.252045,309.190033 
	C223.011658,310.109741 225.666748,313.540344 227.918076,313.174133 
	C230.200485,312.802887 231.931824,309.097107 233.930603,306.875305 
	C234.256622,306.512909 234.717560,306.271851 235.886505,305.929810 
	C239.233307,306.333527 241.809708,306.782135 244.386108,307.230774 
z"/>
<path fill="#E9E6C4" opacity="1.000000" stroke="none" 
	d="
M161.362122,311.143005 
	C157.835068,315.526428 154.439346,320.028656 150.671432,324.194275 
	C149.907639,325.038696 147.183899,325.325439 146.313797,324.648346 
	C142.534073,321.707123 138.869461,318.522736 135.711273,314.943024 
	C134.892044,314.014435 135.616776,311.075287 136.503906,309.574982 
	C136.920593,308.870300 139.837204,308.748260 140.882019,309.454803 
	C148.044464,314.298401 147.975342,314.386322 153.990326,307.677704 
	C154.291977,307.341278 154.851471,307.236023 155.603424,307.356934 
	C155.653900,309.263611 155.391861,310.836456 155.119080,312.473877 
	C157.706329,311.922333 159.534225,311.532654 161.362122,311.143005 
z"/>
<path fill="#6B9462" opacity="1.000000" stroke="none" 
	d="
M254.066605,316.847290 
	C253.714081,317.674286 253.361557,318.501312 252.924194,319.684082 
	C251.998520,319.186768 250.436493,318.317078 250.455658,317.483765 
	C250.507645,315.224823 251.230560,312.981354 251.846191,310.377258 
	C262.352448,310.014984 272.699921,310.007202 283.513794,310.006561 
	C283.532471,312.303040 283.084717,314.592438 282.248108,316.986023 
	C281.859253,317.090210 281.930603,317.016724 281.690369,316.734924 
	C272.322266,316.584503 263.194427,316.715881 254.066605,316.847290 
z"/>
<path fill="#6B9462" opacity="1.000000" stroke="none" 
	d="
M175.056595,316.858307 
	C175.056595,316.858307 174.592636,316.996155 174.351135,317.011902 
	C173.177017,315.121338 172.244400,313.215027 170.867020,310.399567 
	C182.635193,310.399567 192.860565,310.399567 203.584473,310.399567 
	C203.584473,312.098694 203.584473,313.806549 202.825165,315.773712 
	C198.597961,316.022766 195.126312,315.905518 191.663025,316.026825 
	C186.124634,316.220734 180.591782,316.572968 175.056595,316.858307 
z"/>
<path fill="#EAD9C1" opacity="1.000000" stroke="none" 
	d="
M161.604797,311.085083 
	C159.534225,311.532654 157.706329,311.922333 155.119080,312.473877 
	C155.391861,310.836456 155.653900,309.263611 155.950928,307.312866 
	C158.646530,305.715057 161.307129,304.495056 163.967712,303.275085 
	C164.339645,303.773560 164.711578,304.272064 165.083496,304.770538 
	C164.605453,306.037262 164.127411,307.303986 163.199615,308.849854 
	C162.664337,309.208344 162.492661,309.317413 162.508026,309.361877 
	C162.578796,309.566711 162.701691,309.753479 162.805893,309.946747 
	C162.486420,310.306885 162.166946,310.667023 161.604797,311.085083 
z"/>
<path fill="#C3CFAC" opacity="1.000000" stroke="none" 
	d="
M244.685928,307.075989 
	C241.809708,306.782135 239.233307,306.333527 236.198212,305.804871 
	C239.885742,299.332214 241.470474,298.651978 244.548050,302.368469 
	C245.352890,303.340393 244.874695,305.374786 244.685928,307.075989 
z"/>
<path fill="#88A77A" opacity="1.000000" stroke="none" 
	d="
M220.293900,289.335724 
	C228.364822,289.060333 236.705521,289.050903 245.510849,289.081879 
	C244.503204,289.656219 243.051727,290.569275 241.554703,290.651337 
	C237.485489,290.874268 233.390381,290.891449 229.318375,290.706970 
	C226.389465,290.574249 223.481171,289.986481 220.293900,289.335724 
z"/>
<path fill="#88A77A" opacity="1.000000" stroke="none" 
	d="
M175.518173,316.918457 
	C180.591782,316.572968 186.124634,316.220734 191.663025,316.026825 
	C195.126312,315.905518 198.597961,316.022766 202.534149,316.051331 
	C202.786057,316.326233 202.569641,316.582764 202.122742,316.948303 
	C193.254761,317.031067 184.617249,317.004852 175.518173,316.918457 
z"/>
<path fill="#88A77A" opacity="1.000000" stroke="none" 
	d="
M142.096939,289.469147 
	C145.357239,289.067505 148.718918,289.045166 152.536438,289.062927 
	C149.617096,292.577637 145.910339,291.251221 142.096939,289.469147 
z"/>
<path fill="#88A77A" opacity="1.000000" stroke="none" 
	d="
M216.171692,289.293060 
	C216.458008,289.064545 216.894043,289.041809 217.656662,289.046112 
	C217.429306,289.215057 216.875336,289.356934 216.171692,289.293060 
z"/>
<path fill="#E9E6C4" opacity="1.000000" stroke="none" 
	d="
M162.920303,309.726959 
	C162.701691,309.753479 162.578796,309.566711 162.508026,309.361877 
	C162.492661,309.317413 162.664337,309.208344 162.921478,309.072021 
	C163.093124,309.015015 163.034714,309.507172 162.920303,309.726959 
z"/>
<path fill="#88A77A" opacity="1.000000" stroke="none" 
	d="
M213.116241,289.238922 
	C213.029678,289.092560 213.500076,289.051178 213.734924,289.072296 
	C213.714111,289.190704 213.458466,289.287994 213.116241,289.238922 
z"/>
<path fill="#000000" opacity="1.000000" stroke="none" 
	d="
M313.494690,287.281189 
	C312.440247,286.324982 311.737244,285.511810 311.020325,284.362488 
	C316.077454,279.287140 321.148560,274.547882 326.303802,269.447449 
	C328.044281,266.451141 329.473877,263.635925 331.398346,261.213898 
	C337.858612,253.083374 337.461273,242.733856 341.024445,231.859497 
	C346.807770,239.727814 351.944000,246.715775 357.452057,254.189011 
	C358.190125,255.120544 358.556396,255.566788 358.922668,256.013031 
	C358.922668,256.013031 358.943604,256.043030 358.973633,256.344177 
	C359.305939,256.872375 359.608246,257.099457 359.910522,257.326538 
	C360.037384,257.562683 360.214966,257.750977 360.685059,258.276550 
	C361.263672,259.180481 361.600525,259.699310 361.937378,260.218170 
	C361.937378,260.218170 361.963562,260.613037 361.995789,260.808258 
	C365.414795,266.584381 368.801575,272.165283 372.478088,278.330261 
	C373.841003,279.946411 374.914185,280.978485 375.987396,282.010529 
	C375.987396,282.010529 375.998505,282.001984 375.992249,282.007385 
	C376.939545,283.662720 377.893066,285.312622 378.902649,287.298676 
	C375.324249,287.737000 371.690247,287.866211 368.055115,287.934174 
	C363.996002,288.010071 361.554169,289.358154 361.949585,294.103790 
	C362.306732,298.390045 362.054138,302.727081 361.879150,307.839722 
	C355.110687,308.791016 348.533508,308.944305 341.956360,309.097565 
	C331.995331,308.690552 331.995300,308.690552 332.007233,298.770752 
	C332.018982,289.028107 332.016693,289.143768 322.225098,288.949554 
	C319.423126,288.893982 316.638611,287.957001 313.494690,287.281189 
z"/>
<path fill="#6B9462" opacity="1.000000" stroke="none" 
	d="
M341.667908,309.386261 
	C348.533508,308.944305 355.110687,308.791016 361.926575,308.303589 
	C362.681824,308.303497 363.640991,308.628418 363.648132,308.973022 
	C363.746429,313.727814 363.713776,318.485352 363.459045,323.523560 
	C363.012726,322.010864 362.820618,320.216797 362.300354,318.215942 
	C352.326508,318.011780 342.680908,318.014374 332.574463,318.028229 
	C329.429626,311.625580 330.407074,310.022552 336.950714,309.991730 
	C338.427429,309.984772 339.903198,309.785645 341.667908,309.386261 
z"/>
<path fill="#6B9462" opacity="1.000000" stroke="none" 
	d="
M441.237518,316.965149 
	C434.778595,317.354279 428.713196,317.799591 422.642212,317.898346 
	C419.896576,317.943054 417.142303,317.097260 414.386688,317.061157 
	C413.203033,317.045654 412.005920,318.062286 410.481842,318.822815 
	C410.516296,316.072479 410.883881,313.109283 411.625366,310.057434 
	C421.683319,309.973663 431.367432,309.978577 441.518219,309.963379 
	C442.161346,309.953796 442.337738,309.964355 442.779663,309.982788 
	C442.573029,312.287079 442.100891,314.583527 441.237518,316.965149 
z"/>
<path fill="#88A77A" opacity="1.000000" stroke="none" 
	d="
M489.701965,295.291565 
	C489.992432,306.014343 489.992096,317.037354 489.983215,328.528290 
	C489.649353,327.604584 489.037567,326.211395 489.044769,324.821442 
	C489.095337,315.077820 489.273682,305.334900 489.701965,295.291565 
z"/>
<path fill="#635755" opacity="1.000000" stroke="none" 
	d="
M464.928772,289.430237 
	C465.378143,289.185577 465.864899,289.125793 466.720154,289.111145 
	C466.591248,289.419647 466.093842,289.683075 465.297546,289.968750 
	C464.998657,289.990997 464.966187,289.615112 464.928772,289.430237 
z"/>
<path fill="#E9E6C4" opacity="1.000000" stroke="none" 
	d="
M321.350586,300.770844 
	C323.053101,302.056122 324.443146,303.188416 326.347839,304.739929 
	C320.462219,311.689514 314.880371,318.409637 309.072205,324.928162 
	C308.523041,325.544495 306.170959,325.398743 305.307800,324.745483 
	C301.475739,321.845062 297.648834,318.850952 294.359222,315.379730 
	C293.502563,314.475800 294.027069,311.336853 294.982452,309.967804 
	C295.617981,309.057037 298.683533,308.683105 299.736267,309.409546 
	C306.832245,314.306152 306.657684,314.332733 312.555145,308.105011 
	C315.138000,305.377502 318.195923,303.099823 321.350586,300.770844 
z"/>
<path fill="#88A77A" opacity="1.000000" stroke="none" 
	d="
M305.016235,289.569275 
	C305.806702,289.276306 306.688904,289.289612 307.828339,289.540710 
	C307.093048,289.810822 306.100494,289.843170 305.016235,289.569275 
z"/>
<path fill="#EFE9E8" opacity="1.000000" stroke="none" 
	d="
M329.243164,186.262177 
	C328.923004,184.998718 328.904053,183.999527 328.864014,182.627045 
	C328.884277,181.648270 328.925598,181.042801 328.966949,180.437332 
	C330.299896,181.408630 331.632812,182.379944 332.913513,184.121552 
	C334.276398,194.683273 334.859070,204.784470 342.979614,212.080429 
	C343.051239,212.618240 343.122864,213.156052 343.354309,213.914490 
	C344.429108,221.016495 344.429108,221.016495 335.564087,220.749664 
	C333.274200,209.290375 331.409302,197.908417 329.243164,186.262177 
z"/>
<path fill="#473D49" opacity="1.000000" stroke="none" 
	d="
M358.930542,255.682343 
	C358.556396,255.566788 358.190125,255.120544 357.726501,254.371780 
	C358.065582,254.496735 358.501984,254.924194 358.930542,255.682343 
z"/>
<path fill="#473D49" opacity="1.000000" stroke="none" 
	d="
M361.942108,259.878662 
	C361.600525,259.699310 361.263672,259.180481 360.869446,258.342529 
	C361.190308,258.528656 361.568573,259.033905 361.942108,259.878662 
z"/>
<path fill="#473D49" opacity="1.000000" stroke="none" 
	d="
M359.866180,257.042664 
	C359.608246,257.099457 359.305939,256.872375 358.987305,256.356323 
	C359.254578,256.297821 359.538208,256.528320 359.866180,257.042664 
z"/>
<path fill="#3A3442" opacity="1.000000" stroke="none" 
	d="
M467.109802,211.740692 
	C466.722443,209.877274 466.075562,207.528275 466.016510,205.164597 
	C465.855865,198.736206 465.944031,192.301575 465.887817,185.395172 
	C466.232330,185.874039 466.946259,186.821930 466.961700,187.781067 
	C467.087738,195.602325 467.083252,203.425674 467.109802,211.740692 
z"/>
<path fill="#BD6A62" opacity="1.000000" stroke="none" 
	d="
M343.374084,212.022980 
	C334.859070,204.784470 334.276398,194.683273 332.949280,184.462463 
	C333.506531,184.042236 333.975830,184.051422 334.786804,184.142303 
	C336.211853,185.705795 337.295166,187.187561 338.637939,189.247711 
	C339.534302,191.380859 340.171204,192.935669 340.808075,194.490479 
	C340.798187,194.829300 340.788269,195.168106 340.887115,196.095215 
	C341.954895,198.213608 342.913940,199.743729 343.872955,201.273849 
	C343.923004,201.542328 344.048737,201.768707 344.399841,202.076309 
	C345.195709,204.516098 345.765961,206.857239 346.507599,209.142746 
	C347.414673,211.938049 345.800690,212.113632 343.374084,212.022980 
z"/>
<path fill="#473D49" opacity="1.000000" stroke="none" 
	d="
M340.860596,194.050583 
	C340.171204,192.935669 339.534302,191.380859 338.891846,189.434204 
	C339.561920,190.565125 340.237518,192.087906 340.860596,194.050583 
z"/>
<path fill="#473D49" opacity="1.000000" stroke="none" 
	d="
M343.909241,200.881714 
	C342.913940,199.743729 341.954895,198.213608 340.963776,196.339706 
	C341.936279,197.493805 342.940887,198.991699 343.909241,200.881714 
z"/>
<path fill="#3A3442" opacity="1.000000" stroke="none" 
	d="
M375.994995,281.617371 
	C374.914185,280.978485 373.841003,279.946411 372.713562,278.585663 
	C376.664001,275.989471 375.895691,279.099915 375.994995,281.617371 
z"/>
<path fill="#413C4A" opacity="1.000000" stroke="none" 
	d="
M375.528839,190.545074 
	C375.477051,190.575043 375.580627,190.515121 375.528839,190.545074 
z"/>
<path fill="#448BC2" opacity="1.000000" stroke="none" 
	d="
M280.141541,267.644409 
	C277.731476,268.022797 276.101410,267.809967 276.903564,264.667938 
	C278.883148,256.914246 280.485077,249.064041 282.474426,241.313110 
	C282.872131,239.763641 284.316803,238.482849 285.650696,237.022675 
	C285.669525,240.072266 285.533600,243.221069 284.919312,246.273590 
	C283.504547,253.303940 281.857269,260.287506 280.141541,267.644409 
z"/>
<path fill="#473D49" opacity="1.000000" stroke="none" 
	d="
M382.005798,282.995667 
	C382.122772,283.128723 382.234039,283.266113 382.345276,283.403473 
	C382.265900,283.356995 382.186493,283.310516 382.049377,283.137604 
	C381.991608,283.011200 382.000061,283.000000 382.005798,282.995667 
z"/>
<path fill="#88A77A" opacity="1.000000" stroke="none" 
	d="
M254.526642,316.913025 
	C263.194427,316.715881 272.322266,316.584503 281.728455,316.769104 
	C273.000122,317.049652 263.993408,317.014221 254.526642,316.913025 
z"/>
</svg>